<svg height="288" width="288" xmlns="http://www.w3.org/2000/svg"><svg height="288" width="288" xmlns="http://www.w3.org/2000/svg"><svg height="288" preserveAspectRatio="xMidYMid" transform="matrix(.9167 0 0 .9167 11.995 11.965)" viewBox="0 0 256 361" width="288" xmlns="http://www.w3.org/2000/svg"><path d="m127.843868 360.087912-104.1821537-28.92167-23.21652749-260.4005277h255.10962619l-23.241143 260.3597367z" fill="#b7b7b7"/><path d="m212.416703 314.546637 19.861099-222.4893183h-104.277802v245.8929233z" fill="#d8d8d8"/><path d="m53.6685714 188.636132 2.8624176 31.936703h71.469011v-31.936703zm-5.7515604-64.641407 2.9032088 31.937407h77.1797802v-31.937407zm80.082989 147.585407-.139956.037275-35.5685275-9.60422-2.2737583-25.471297h-32.0597802l4.4743736 50.145758 65.4206594 18.161231.146989-.040791z" fill="#d8d8d8"/><path d="m60.4835165 0h38.6813187v16.1758242h-22.5054945v16.1758242h22.5054945v16.1758241h-38.6813187zm46.4175825 0h38.681319v14.0659341h-22.505495v2.8131868h22.505495v32.3516483h-38.681319v-14.7692307h22.505494v-2.8131869h-22.505494zm46.417582 0h38.681319v14.0659341h-22.505495v2.8131868h22.505495v32.3516483h-38.681319v-14.7692307h22.505495v-2.8131869h-22.505495z" fill="#252525"/><path d="m202.126769 188.636132 5.765627-64.641407h-80.002814v31.937407h45.00255l-2.906022 32.704h-42.096528v31.936703h39.326945l-3.707076 41.419956-35.619869 9.614066v33.22655l65.472704-18.145759.480351-5.395692 7.504879-84.079824z" fill="#fff"/></svg></svg></svg>